#tb 0: 1/25
#media_type 0: video
#codec_id 0: rawvideo
#dimensions 0: 352x288
#sar 0: 1/1
0,          1,          1,        1,   152064, 0x631081de
0,          2,          2,        1,   152064, 0x01d27767
0,          3,          3,        1,   152064, 0xd6aa0d0b
0,          4,          4,        1,   152064, 0x04d07b5e
0,          5,          5,        1,   152064, 0xe91bc509
